# Blender v2.79 (sub 0) OBJ File: 'balcony.blend'
# www.blender.org
mtllib balcony.mtl
o Plane.006_Plane.004
v -2.509091 2.440864 4.044056
v -0.819913 2.440864 4.044056
v -2.509091 0.014910 4.044056
v -0.819913 0.014910 4.044056
v -2.448170 2.372917 4.044056
v -0.880835 2.372917 4.044056
v -2.448170 0.106357 4.044056
v -0.880835 0.106357 4.044056
v -2.448170 2.372917 4.024015
v -0.880835 2.372917 4.024015
v -2.448170 0.106357 4.024015
v -0.880835 0.106357 4.024015
v -2.408963 2.312909 4.024015
v -0.920042 2.312909 4.024015
v -2.408963 0.166366 4.024015
v -0.920042 0.166366 4.024015
v -0.819913 2.464477 3.959646
v -2.509091 2.464477 3.959646
v -0.819913 0.014797 3.959646
v -2.509091 0.014797 3.959646
v -0.880835 2.372917 3.959646
v -2.448170 2.372917 3.959646
v -0.880835 0.106357 3.959646
v -2.448170 0.106357 3.959646
v -0.880835 2.372917 3.979686
v -2.448170 2.372917 3.979686
v -0.880835 0.106357 3.979686
v -2.448170 0.106357 3.979686
v -0.920042 2.312909 3.979686
v -2.408963 2.312909 3.979686
v -0.920042 0.166366 3.979686
v -2.408963 0.166366 3.979686
v -2.655070 1.100146 6.000999
v -2.655070 1.100146 4.000999
v -2.655070 -0.050000 4.000999
v -2.655070 -0.050000 6.000999
v 0.616883 1.100146 6.000999
v 0.616883 -0.050000 6.000999
v 0.616883 1.100146 4.000999
v 0.487666 1.100146 4.000999
v 0.487666 1.100146 5.870188
v -2.512335 1.100146 5.870188
v -2.512335 1.100146 4.000999
v -2.512335 -0.002457 4.000999
v 0.487666 -0.002457 4.000999
v 0.616883 -0.050000 4.000999
v -2.512335 -0.002457 5.870188
v 0.487666 -0.002457 5.870188
vt 0.814690 0.978981
vt 0.814690 0.631796
vt 0.664354 0.892185
vt 0.965025 0.892185
vt 0.814690 0.631796
vt 0.664354 0.718592
vt 0.988283 0.631796
vt 0.641097 0.978981
vt 0.641097 0.631796
vt 0.641097 0.978981
vt 0.641097 0.631796
vt 0.988283 0.631796
vt 0.641097 0.978981
vt 0.641097 0.631796
vt 0.988283 0.631796
vt 0.965025 0.892185
vt 0.814690 0.631796
vt 0.664354 0.718592
vt 0.965025 0.892185
vt 0.664354 0.718592
vt 0.814690 0.978981
vt 0.814690 0.631796
vt 0.664354 0.892185
vt 0.965025 0.892185
vt 0.664354 0.718592
vt 0.988283 0.631796
vt 0.641097 0.978981
vt 0.641097 0.631796
vt 0.641097 0.978981
vt 0.641097 0.631796
vt 0.988283 0.631796
vt 0.641097 0.978981
vt 0.641097 0.631796
vt 0.988283 0.631796
vt 0.965025 0.892185
vt 0.814690 0.631796
vt 0.664354 0.718592
vt 0.988283 0.631796
vt 0.641097 0.978981
vt 0.641097 0.631796
vt 0.988283 0.631796
vt 0.641097 0.978981
vt 0.641097 0.631796
vt 0.988283 0.631796
vt 0.641097 0.978981
vt 0.641097 0.631796
vt 0.988283 0.631796
vt 0.641097 0.978981
vt 0.641097 0.631796
vt 0.641097 0.631796
vt 0.988283 0.978981
vt 0.641097 0.978981
vt 0.965025 0.892185
vt 0.814690 0.631796
vt 0.664354 0.718592
vt 0.965025 0.892185
vt 0.965025 0.718592
vt 0.664354 0.718592
vt 0.664354 0.892185
vt 0.814690 0.978981
vt 0.965025 0.718592
vt 0.988283 0.978981
vt 0.988283 0.978981
vt 0.988283 0.978981
vt 0.664354 0.892185
vt 0.814690 0.978981
vt 0.965025 0.718592
vt 0.965025 0.892185
vt 0.965025 0.718592
vt 0.664354 0.718592
vt 0.988283 0.978981
vt 0.988283 0.978981
vt 0.988283 0.978981
vt 0.664354 0.892185
vt 0.814690 0.978981
vt 0.965025 0.718592
vt 0.988283 0.978981
vt 0.988283 0.978981
vt 0.988283 0.978981
vt 0.988283 0.978981
vt 0.988283 0.631796
vt 0.664354 0.892185
vt 0.814690 0.978981
vt 0.965025 0.718592
vt 0.222751 0.796271
vt 0.030648 0.915232
vt 0.030648 0.796271
vt 0.223075 0.887908
vt 0.415178 0.768947
vt 0.415178 0.887908
vt 0.222751 0.589086
vt 0.039028 0.602615
vt 0.030648 0.589086
vt 0.242751 0.581176
vt 0.237834 0.588762
vt 0.242751 0.405039
vt 0.030648 0.588762
vt 0.237510 0.396659
vt 0.237510 0.588762
vt 0.357118 0.396659
vt 0.476079 0.588762
vt 0.357118 0.588762
vt 0.415501 0.948486
vt 0.529545 0.768947
vt 0.529545 0.948486
vt 0.223075 0.768624
vt 0.412743 0.589086
vt 0.412743 0.768624
vt 0.476402 0.396659
vt 0.590446 0.572795
vt 0.476402 0.572795
vt 0.413067 0.589086
vt 0.527110 0.768624
vt 0.413067 0.768624
vt 0.222751 0.915232
vt 0.223075 0.768947
vt 0.222751 0.795948
vt 0.215165 0.602615
vt 0.215165 0.795948
vt 0.039028 0.795948
vt 0.030648 0.795948
vt 0.237834 0.396659
vt 0.356795 0.396659
vt 0.356795 0.405039
vt 0.356795 0.581176
vt 0.356795 0.588762
vt 0.030648 0.396659
vt 0.476079 0.396659
vt 0.415501 0.768947
vt 0.223075 0.589086
vt 0.590446 0.396659
vt 0.527110 0.589086
vn 0.0000 0.0000 1.0000
vn -0.0000 0.0000 -1.0000
vn 0.0000 1.0000 0.0000
vn 1.0000 0.0000 0.0000
vn -1.0000 0.0000 0.0000
vn 0.0000 -1.0000 0.0000
usemtl Frame
s off
f 15/1/1 11/2/1 16/3/1
f 23/4/2 17/5/2 19/6/2
f 9/7/3 6/8/3 10/9/3
f 9/7/4 7/10/4 11/11/4
f 10/12/4 8/13/4 12/14/4
f 11/15/3 8/13/3 12/14/3
f 7/16/1 1/17/1 3/18/1
f 6/19/2 1/17/2 2/20/2
f 31/21/2 27/22/2 32/23/2
f 22/24/1 17/5/1 18/25/1
f 25/26/3 22/27/3 26/28/3
f 25/26/5 23/29/5 27/30/5
f 26/31/5 24/32/5 28/33/5
f 27/34/3 24/32/3 28/33/3
f 30/35/1 25/36/1 26/37/1
f 29/38/3 13/39/3 14/40/3
f 31/41/4 14/42/4 16/43/4
f 32/44/6 16/45/6 15/46/6
f 30/47/5 15/48/5 13/49/5
f 19/50/5 2/51/5 17/52/5
f 14/53/2 9/54/2 10/55/2
f 15/1/1 13/56/1 9/57/1
f 11/2/1 12/58/1 16/3/1
f 15/1/1 9/57/1 11/2/1
f 20/59/2 24/60/2 23/4/2
f 23/4/2 21/61/2 17/5/2
f 19/6/2 20/59/2 23/4/2
f 9/7/3 5/62/3 6/8/3
f 9/7/4 5/62/4 7/10/4
f 10/12/4 6/63/4 8/13/4
f 11/15/3 7/64/3 8/13/3
f 4/65/1 8/66/1 7/16/1
f 7/16/1 5/67/1 1/17/1
f 3/18/1 4/65/1 7/16/1
f 4/65/2 8/66/2 2/20/2
f 6/19/2 5/67/2 1/17/2
f 2/20/2 8/66/2 6/19/2
f 31/21/2 29/68/2 25/69/2
f 27/22/2 28/70/2 32/23/2
f 31/21/2 25/69/2 27/22/2
f 20/59/1 24/60/1 18/25/1
f 22/24/1 21/61/1 17/5/1
f 18/25/1 24/60/1 22/24/1
f 25/26/3 21/71/3 22/27/3
f 25/26/5 21/71/5 23/29/5
f 26/31/5 22/72/5 24/32/5
f 27/34/3 23/73/3 24/32/3
f 28/74/1 32/75/1 26/37/1
f 30/35/1 29/76/1 25/36/1
f 26/37/1 32/75/1 30/35/1
f 29/38/3 30/77/3 13/39/3
f 31/41/4 29/78/4 14/42/4
f 32/44/6 31/79/6 16/45/6
f 30/47/5 32/80/5 15/48/5
f 19/50/5 4/81/5 2/51/5
f 12/82/2 16/83/2 10/55/2
f 14/53/2 13/84/2 9/54/2
f 10/55/2 16/83/2 14/53/2
usemtl Balcony
f 34/85/5 36/86/5 33/87/5
f 33/88/1 38/89/1 37/90/1
f 37/91/3 42/92/3 33/93/3
f 45/94/2 46/95/2 44/96/2
f 35/97/6 38/98/6 36/99/6
f 37/100/4 46/101/4 39/102/4
f 43/103/4 47/104/4 44/105/4
f 44/106/3 48/107/3 45/108/3
f 41/109/2 47/110/2 42/111/2
f 40/112/5 48/113/5 41/114/5
f 34/85/5 35/115/5 36/86/5
f 33/88/1 36/116/1 38/89/1
f 37/91/3 39/117/3 41/118/3
f 39/117/3 40/119/3 41/118/3
f 43/120/3 34/121/3 42/92/3
f 37/91/3 41/118/3 42/92/3
f 42/92/3 34/121/3 33/93/3
f 35/122/2 34/123/2 44/96/2
f 34/123/2 43/124/2 44/96/2
f 40/125/2 39/126/2 45/94/2
f 35/122/2 44/96/2 46/95/2
f 45/94/2 39/126/2 46/95/2
f 35/97/6 46/127/6 38/98/6
f 37/100/4 38/128/4 46/101/4
f 43/103/4 42/129/4 47/104/4
f 44/106/3 47/130/3 48/107/3
f 41/109/2 48/131/2 47/110/2
f 40/112/5 45/132/5 48/113/5
