# Blender v2.79 (sub 0) OBJ File: 'Base.blend'
# www.blender.org
mtllib House.mtl
o cube_cube.002
v 4.000000 3.000000 4.000000
v -4.000000 3.000000 4.000000
v -4.000000 0.000000 4.000000
v -4.000000 0.000000 -4.000000
v -4.000000 3.000000 -4.000000
v 4.000000 3.000000 -4.000000
v 4.000000 0.000000 -4.000000
v 4.000000 3.000000 -4.000000
v 4.000000 3.000000 4.000000
v 4.000000 3.000000 -4.000000
v -4.000000 3.000000 -4.000000
v -4.000000 3.000000 4.000000
v -4.000000 3.000000 4.000000
v -4.000000 3.000000 -4.000000
v -4.000000 0.000000 -4.000000
v 4.000000 0.000000 4.000000
v -4.000000 0.000000 4.000000
v -4.000000 0.000000 -4.000000
v 4.000000 0.000000 4.000000
v 4.000000 0.000000 -4.000000
v 4.000000 0.000000 4.000000
v 4.000000 3.000000 4.000000
v -4.000000 0.000000 4.000000
v 4.000000 0.000000 -4.000000
v -4.000000 2.564440 0.093336
v -4.000000 2.026251 1.403336
v -4.000000 1.174440 1.403336
v -4.000000 2.564440 1.403336
v -4.000000 1.174440 0.093336
v -4.000000 1.535001 0.093336
v 4.000000 2.442993 -0.999228
v 4.000000 0.010083 0.499091
v 4.000000 1.687159 0.499091
v 4.000000 2.442993 0.499091
v 4.000000 0.010083 -0.999228
v 4.000000 1.125289 -0.999229
v -2.511338 2.453497 4.000000
v -2.511338 0.037918 4.000000
v 0.491691 0.037918 4.000000
v 0.491691 2.453497 4.000000
v -2.511338 0.558248 4.000000
v 0.491691 1.684384 4.000000
vt 0.744876 0.513026
vt 0.744876 0.740164
vt 0.517646 0.740255
vt 0.517646 0.513026
vt 0.499800 0.999800
vt 0.000200 0.999800
vt 0.000200 0.500200
vt 0.499800 0.500200
vt 0.990932 0.751256
vt 0.990932 0.983119
vt 0.948694 0.852937
vt 0.517382 0.982237
vt 0.517382 0.783568
vt 0.716051 0.783568
vt 0.987352 0.012648
vt 0.899214 0.279615
vt 0.899214 0.190708
vt 0.000200 0.499800
vt 0.072735 0.255829
vt 0.072735 0.337638
vt 0.761999 0.852937
vt 0.761999 0.939973
vt 0.759068 0.983119
vt 0.716051 0.982237
vt 0.512648 0.487352
vt 0.512648 0.012648
vt 0.514243 0.279615
vt 0.499800 0.499800
vt 0.304217 0.255829
vt 0.499800 0.000200
vt 0.802214 0.939973
vt 0.948694 0.939973
vt 0.889251 0.852937
vt 0.690708 0.190708
vt 0.987352 0.487352
vt 0.779615 0.279615
vt 0.000200 0.000200
vt 0.244171 0.255829
vt 0.162362 0.337638
vt 0.759068 0.751256
vt 0.514243 0.190708
vt 0.304217 0.337638
vn 0.0000 1.0000 0.0000
vn 0.0000 -1.0000 0.0000
vn 0.0000 0.0000 1.0000
vn 0.0000 0.0000 -1.0000
vn 1.0000 0.0000 0.0000
vn -1.0000 0.0000 0.0000
vn 1.0000 0.0001 0.0000
usemtl White.002
s 1
f 10/1/1 11/2/1 12/3/1
f 22/4/1 10/1/1 12/3/1
usemtl Floor.002
f 16/5/2 17/6/2 18/7/2
f 24/8/2 16/5/2 18/7/2
usemtl Wall
f 1/9/3 2/10/3 40/11/3
f 4/12/4 5/13/4 6/14/4
f 8/15/5 34/16/5 31/17/5
f 13/18/6 25/19/6 28/20/6
f 39/21/3 38/22/3 3/23/3
f 20/24/4 4/12/4 6/14/4
f 21/25/5 7/26/5 32/27/5
f 23/28/6 29/29/6 15/30/6
f 2/10/3 3/23/3 41/31/3
f 2/10/3 41/31/3 37/32/3
f 40/11/3 42/33/3 1/9/3
f 2/10/3 37/32/3 40/11/3
f 36/34/5 7/26/5 8/15/5
f 9/35/5 33/36/5 34/16/5
f 31/17/5 36/34/5 8/15/5
f 9/35/5 34/16/5 8/15/5
f 14/37/6 15/30/6 30/38/6
f 14/37/6 30/38/6 25/19/6
f 28/20/6 26/39/6 13/18/6
f 14/37/6 25/19/6 13/18/6
f 19/40/3 1/9/3 42/33/3
f 19/40/3 42/33/3 39/21/3
f 38/22/3 41/31/3 3/23/3
f 19/40/3 39/21/3 3/23/3
f 7/26/5 36/34/5 35/41/7
f 32/27/5 33/36/5 21/25/5
f 7/26/5 35/41/7 32/27/5
f 33/36/5 9/35/5 21/25/5
f 23/28/6 13/18/6 27/42/6
f 13/18/6 26/39/6 27/42/6
f 29/29/6 30/38/6 15/30/6
f 23/28/6 27/42/6 29/29/6
